{"title":"Charlie's Angels - Full Throttle (2003) 720p BRRip HEVC x265 [Du","uid":12010825,"size":1179925965,"categoryP":"video","categoryS":"movies","magnet":"?xt=urn:btih:5ef53e477ec14e57e56cd8492b6f21ff29b96eb6&amp;dn=Charlie%27s+Angels+-+Full+Throttle+%282003%29+720p+BRRip+HEVC+x265+%5BDu&amp;tr=udp%3A%2F%2Ftracker.openbittorrent.com%3A80&amp;tr=udp%3A%2F%2Fopen.demonii.com%3A1337&amp;tr=udp%3A%2F%2Ftracker.coppersurfer.tk%3A6969&amp;tr=udp%3A%2F%2Fexodus.desync.com%3A6969","seeders":1,"leechers":4,"uploader":"praneet_gupta777","files":3,"time":1434108404,"description":"[center]\n[b][size=7]Charlie's Angels - Full Throttle (2003) 720p BRRip HEVC x265 [Dual-Audio][English 5.1+Hindi 5.1] [PKG][/size][/b]\n\n\n\n\n\n[img]http://s20.postimg.org/nhsyftke5/1863_Charlies_angels_2_Full_throttle_r1_English.jpg[/img]\n\n\n[img]http://s20.postimg.org/782scx9q5/Untitled.png[/img]\n\n\n\n\n[img]http://img9.uploadhouse.com/fileuploads/15981/15981250a2a3770f9f004bcdf00afac92833ebdb.png[/img]\n\n\n[quote]\n\n\nGeneral\nUnique ID                   : 206805947398649659570069425993854483312 (0x9B95606DEB783EE0B44E0AEC3967FB70)\nComplete name               : G:Charlie's Angels - Full Throttle (2003) 720p BRRip HEVC x265 [Dual-Audio][English 5.1+Hindi 5.1] [PKG]Charlie's Angels - Full Throttle (2003) 720p BRRip HEVC x265 [Dual-Audio][English 5.1+Hindi 5.1] [PKG].mkv\nFormat                      : Matroska\nFormat version              : Version 2\nFile size                   : 1.09 GiB\nDuration                    : 1h 47mn\nOverall bit rate            : 1 461 Kbps\nEncoded date                : UTC 2015-05-14 11:50:18\nWriting application         : mkvmerge v7.7.0 ('Six Voices') 32bit built on Feb 28 2015 23:23:00\nWriting library             : libebml v1.3.1 + libmatroska v1.4.2\n_STATISTICS_WRITING_APP     : mkvmerge v7.7.0 ('Six Voices') 32bit built on Feb 28 2015 23:23:00\n_STATISTICS_WRITING_DATE_UT : 2015-05-14 11:50:18\n_STATISTICS_TAGS            : BPS DURATION NUMBER_OF_FRAMES NUMBER_OF_BYTES\nDURATION                    : 01:47:06.464000000\nNUMBER_OF_FRAMES            : 200827\nNUMBER_OF_BYTES             : 154235136\n\nVideo\nID                          : 1\nFormat                      : HEVC\nFormat/Info                 : High Efficiency Video Coding\nCodec ID                    : V_MPEGH/ISO/HEVC\nDuration                    : 1h 47mn\nBit rate                    : 1 048 Kbps\nWidth                       : 1 280 pixels\nHeight                      : 536 pixels\nDisplay aspect ratio        : 2.40:1\nFrame rate mode             : Constant\nFrame rate                  : 23.976 fps\nBits/(Pixel*Frame)          : 0.064\nStream size                 : 803 MiB (72%)\nDefault                     : Yes\nForced                      : No\n\nAudio #1\nID                          : 2\nFormat                      : AC-3\nFormat/Info                 : Audio Coding 3\nMode extension              : CM (complete main)\nFormat settings, Endianness : Big\nCodec ID                    : A_AC3\nDuration                    : 1h 47mn\nBit rate mode               : Constant\nBit rate                    : 192 Kbps\nChannel(s)                  : 6 channels\nChannel positions           : Front: L C R, Side: L R, LFE\nSampling rate               : 48.0 KHz\nBit depth                   : 16 bits\nCompression mode            : Lossy\nStream size                 : 147 MiB (13%)\nLanguage                    : Hindi\nDefault                     : Yes\nForced                      : No\n\nAudio #2\nID                          : 3\nFormat                      : AC-3\nFormat/Info                 : Audio Coding 3\nMode extension              : CM (complete main)\nFormat settings, Endianness : Big\nCodec ID                    : A_AC3\nDuration                    : 1h 47mn\nBit rate mode               : Constant\nBit rate                    : 192 Kbps\nChannel(s)                  : 6 channels\nChannel positions           : Front: L C R, Side: L R, LFE\nSampling rate               : 48.0 KHz\nBit depth                   : 16 bits\nCompression mode            : Lossy\nStream size                 : 147 MiB (13%)\nLanguage                    : English\nDefault                     : No\nForced                      : No\n\n\n[color=navy][size=6][b]SAMPLE WITHIN TORRENT[/b][/size][/color]\n\n\n\n\n\n[img]http://icons.iconarchive.com/icons/tribalmarkings/colorflow/256/screenshots-icon.png[/img]\n\n\n\n[img]http://s20.postimg.org/skxpqotj1/vlcsnap_2015_06_09_16h24m24s165.png[/img]\n\n\n[img]http://s20.postimg.org/sq62e3q7x/vlcsnap_2015_06_09_17h55m49s76.png[/img]\n\n\n[img]http://s20.postimg.org/i0ns83p19/vlcsnap_2015_06_09_17h58m49s95.png[/img]\n\n\n[img]http://s20.postimg.org/3vhz6afzx/vlcsnap_2015_06_09_17h58m57s174.png[/img]\n\n\n[img]http://s20.postimg.org/pct8dn799/vlcsnap_2015_06_09_17h59m36s47.png[/img]\n\n\n[img]http://s20.postimg.org/3sy3jgccd/vlcsnap_2015_06_09_18h01m12s235.png[/img]\n\n\n[img]http://s20.postimg.org/j7eak8fb1/Charlie_s_Angels_Full_Throttle_720p_BRRip_HEVC.jpg[/img]\n\n[b]Use a reputed media player that can play H.265 (HEVC : High Efficiency Video Coding) Video support.\nMedia Player Classic - Home Cinema and MPC-BE are recommended!.. VLC is OKay, but MPC variants are preferred.\nVLC and players like latest GOM, KMP/PotP with LAV can play HEVC.\n\nAnd also use latest K-Lite Codec Pack.\n\nIn Mobile, Android, Tabs, use a media player like VLC Player, MX Player... that can play H.265 :]\nFor more info, read the How_to_Play_ file inside the torrent.\n\n\nBe aware that all HEVC rips will not play on any stand-alone device. You can only watch this on a computer or on devices which have HEVC support.\nBe sure that you have the latest versions of VLC or Media Player Classic or SMPlayer. Earlier versions may not work[/b]\n\n\n\n[/center]","torrent":{"xt":"urn:btih:5ef53e477ec14e57e56cd8492b6f21ff29b96eb6","amp;dn":"Charlie%27s+Angels+-+Full+Throttle+%282003%29+720p+BRRip+HEVC+x265+%5BDu","amp;tr":["udp%3A%2F%2Ftracker.openbittorrent.com%3A80","udp%3A%2F%2Fopen.demonii.com%3A1337","udp%3A%2F%2Ftracker.coppersurfer.tk%3A6969","udp%3A%2F%2Fexodus.desync.com%3A6969"],"infoHash":"5ef53e477ec14e57e56cd8492b6f21ff29b96eb6","infoHashBuffer":{"type":"Buffer","data":[94,245,62,71,126,193,78,87,229,108,216,73,43,111,33,255,41,185,110,182]},"announce":[],"urlList":[]}}